<svg id="Calque_1" data-name="Calque 1" xmlns="http://www.w3.org/2000/svg" viewBox="0 0 119.91 119.91"><defs><style>.cls-1{fill:#fff;stroke:#232323;stroke-miterlimit:10;stroke-width:3px;}.cls-2{fill:#232323;}</style></defs><path class="cls-1" d="M4.42,1.5H115.49a2.92,2.92,0,0,1,2.92,2.92V115.49a2.92,2.92,0,0,1-2.92,2.92H35.9A34.4,34.4,0,0,1,1.5,84V4.42A2.92,2.92,0,0,1,4.42,1.5Z"/><path class="cls-2" d="M53.51,81.89V34.2H67.85l15.7,21.5L88,63.17l-1-14V34.2h14.35V81.89H87.46L71.2,60.47l-4.62-7.33,1.27,15.44V81.89Z" transform="translate(-41.77 -24.25)"/><path class="cls-2" d="M104.6,81.89V34.2h42.7V45.59H119.58v6.76h23.55V63.74H119.58V70.5H147.3V81.89Z" transform="translate(-41.77 -24.25)"/><path class="cls-2" d="M53.51,109c0-13.38,9.77-23.84,23.91-23.84S101.33,95.64,101.33,109s-9.78,23.84-23.91,23.84S53.51,122.39,53.51,109Zm34.65,0c0-6.73-3.54-11.72-10.74-11.72s-10.75,5-10.75,11.72,3.54,11.71,10.75,11.71S88.16,115.74,88.16,109Z" transform="translate(-41.77 -24.25)"/><path class="cls-2" d="M104.6,132.86V85.18h12.81l14,21.49,4,7.47-.93-14V85.18H147.3v47.68H134.91L120.4,111.44l-4.13-7.33,1.14,15.44v13.31Z" transform="translate(-41.77 -24.25)"/></svg>