<svg id="Calque_1" data-name="Calque 1" xmlns="http://www.w3.org/2000/svg" viewBox="0 0 120.01 121.92"><defs><style>.cls-1{fill:#fff;}.cls-2{fill:#232323;}</style></defs><path class="cls-1" d="M67.75,140a23,23,0,0,1-23-23V44.62a23,23,0,0,1,22.78-23L138.81,21a23,23,0,0,1,23,23v72.35a23.05,23.05,0,0,1-22.78,23Z" transform="translate(-43.27 -19.53)"/><path class="cls-2" d="M138.82,19.53v3A21.51,21.51,0,0,1,160.29,44v72.35A21.55,21.55,0,0,1,139,137.84l-71.05.61h-.19A21.5,21.5,0,0,1,46.27,117V44.62a21.54,21.54,0,0,1,21.3-21.47l71.05-.62h.19v-3m0,0h-.21l-71.06.62A24.47,24.47,0,0,0,43.27,44.62V117a24.47,24.47,0,0,0,24.48,24.47H68l71.06-.61a24.48,24.48,0,0,0,24.27-24.48V44a24.48,24.48,0,0,0-24.48-24.48Z" transform="translate(-43.27 -19.53)"/><path class="cls-2" d="M56.38,78.85V31.17H70.73l15.7,21.49,4.47,7.47-1-14V31.17h14.35V78.85H90.34L74.08,57.43,69.46,50.1l1.27,15.44V78.85Z" transform="translate(-43.27 -19.53)"/><path class="cls-2" d="M107.47,78.85V31.17h42.71V42.55H122.46v6.76H146V60.7H122.46v6.76h27.72V78.85Z" transform="translate(-43.27 -19.53)"/><path class="cls-2" d="M56.38,106c0-13.38,9.78-23.84,23.92-23.84S104.21,92.6,104.21,106s-9.78,23.84-23.91,23.84S56.38,119.36,56.38,106ZM91,106c0-6.73-3.54-11.71-10.74-11.71s-10.75,5-10.75,11.71,3.54,11.71,10.75,11.71S91,112.7,91,106Z" transform="translate(-43.27 -19.53)"/><path class="cls-2" d="M107.47,129.82V82.14h12.82l14,21.49,4,7.47-.93-14V82.14h12.82v47.68H137.79L123.28,108.4l-4.14-7.33,1.15,15.44v13.31Z" transform="translate(-43.27 -19.53)"/></svg>