<svg xmlns="http://www.w3.org/2000/svg" viewBox="0 0 1034.49 1034.49"><defs><style>.cls-1{fill:#fff;}.cls-2{fill:#1d1d1b;}</style></defs><g id="Calque_2" data-name="Calque 2"><rect class="cls-1" x="24" y="24" width="986.49" height="986.49" rx="168.06"/><path class="cls-2" d="M1045.19,250.75a144.08,144.08,0,0,1,144.06,144.06v650.38a144.08,144.08,0,0,1-144.06,144.06H394.81a144.08,144.08,0,0,1-144.06-144.06V394.81A144.08,144.08,0,0,1,394.81,250.75h650.38m0-48H394.81c-106.07,0-192.06,86-192.06,192.06v650.38c0,106.07,86,192.06,192.06,192.06h650.38c106.07,0,192.06-86,192.06-192.06V394.81c0-106.07-86-192.06-192.06-192.06Z" transform="translate(-202.75 -202.75)"/><path class="cls-2" d="M720,250.75a467.67,467.67,0,1,1-182.64,36.86A466.2,466.2,0,0,1,720,250.75m0-48c-285.67,0-517.25,231.58-517.25,517.25S434.33,1237.25,720,1237.25,1237.25,1005.67,1237.25,720,1005.67,202.75,720,202.75Z" transform="translate(-202.75 -202.75)"/></g></svg>